<svg xmlns="http://www.w3.org/2000/svg" version="1.0" viewBox="167.18 70.08 691.21 770.92">
	<style>
		path {
			fill: black;
		}
		@media (prefers-color-scheme: dark) {
			path {
				fill: white;
			}
		}
	</style>
	<path d="M396.9 838.7c-9.9-8.6-90.4-102.2-121-140.7-56.7-71.2-81.9-118.7-96.3-181.3-8.9-38.5-11.6-63.7-12.3-114.7-.9-62.8 3.1-104.7 14.2-149.5 12.5-50.5 28.4-79.2 60.9-110.3 29-27.5 71-51.9 108.1-62.7 11.3-3.2 12.4-2.9 9.1 2.8-1.4 2.3-3.3 7.4-4.2 11.2-2.6 11.1-1.1 50.5 3 78.5 3.4 22.6 5.8 37.6 6.3 38 .3.3.3-1.5-.1-4-1.3-9.5-1.8-82.6-.7-101 1.2-20.1 2.6-25 8.2-29.2 3.3-2.5 11.9-4.5 22.6-5.4 14.3-1.2 16.9 1 12.4 10.6l-2.6 5.5-.3 45.5c-.2 25-.1 54.7.3 65.9.7 19.6.8 20.5 3.1 22.8l2.3 2.3h202l2.7-2.4 2.8-2.3.7-21.9c1-29.5 1-70.9 0-93.4-.7-16-1.1-19.1-3-22.7-2.7-5.4-2.7-6.9.4-8.9 2.2-1.4 4.1-1.6 11.9-1 17 1.2 24.8 4.3 28.1 11.3 3.6 7.5 4.3 61 1.5 101.8-5.8 82.3-23.2 151.6-58.3 231.5-5.7 13-14.1 30.5-37 77-29.6 60.3-40.5 89.8-42.8 116.4-1.8 20.3 1.1 45.2 9.1 78.6 2.7 11.3 5.2 23.2 5.6 26.6.8 8.1-1.2 12.5-6.9 15.3-12.4 5.9-56.2 4.7-68.9-1.9l-4.1-2.1.7 3.3c.9 4.5 4.8 9.9 13.6 18.8 17.3 17.4 36.2 27.9 56.8 31.5 9.1 1.6 25.3 1.9 34.2.6 3-.5 5.6-.7 5.8-.6s-1.9 1.9-4.5 3.8c-9.5 7-26.3 12.1-44.3 13.5l-9.5.8 9.6.8c15.2 1.2 36.6-1.8 54-7.5 4.9-1.7 16-6 24.6-9.6 28.8-12 30.3-12.5 38.3-13 6.7-.5 7.9-.3 11 1.9 1.9 1.3 4.3 3.9 5.2 5.8 2.2 4.4 2.3 13.9.3 20.6-.8 2.7-1.5 5.1-1.5 5.4s2.8-2.5 6.3-6.2c3.4-3.6 12.1-12.2 19.2-18.9 16.3-15.4 49.7-49.9 64.7-66.7 37.6-42.1 61.5-78 78.9-118.7 12.1-28.4 22.8-67.6 27.9-101.7 4.3-29.1 5.4-44.3 5.3-75.8 0-44-3.3-78-11.4-116.6-13.8-66.6-48-122.3-102.9-167.9-19.1-15.8-52.5-35.8-64.6-38.7-4.7-1.1-5.2-1.5-7.6-6.6-1.9-4.1-2.2-5.5-1.2-5.9 3.7-1.4 37.1 11.3 57.9 22.1 38.5 19.9 69.6 46.6 90.4 77.4 23.9 35.5 38.7 89.9 45.1 165.2 4.4 52.2 2.7 102.9-5 150-7.2 43.7-20.7 85.8-38.6 119.8-21.8 41.6-44.4 71.1-102.5 133.8-9.1 9.8-18.1 19.7-20 21.9s-8.6 9.9-14.9 17c-6.4 7.2-17.3 19.8-24.4 28-15.3 17.8-25.6 28.5-27.3 28.5-.7 0-1.3-.2-1.3-.4 0-1.2 3.5-9.7 8.3-19.6 6.9-14.6 11.3-26.2 12.1-32.2 1.3-8.5-3.5-14.8-11.3-14.8-4.1 0-16.5 4-31.3 10.1-21.6 9-35 13.6-47.3 16.5-11.6 2.8-12.9 2.9-38 2.8-37.4 0-45.1-1.6-79.6-16.9-26.9-12-41.3-17.5-47-18.2-4.4-.5-5-.3-8 2.6-2.9 3-3.1 3.5-2.7 8.9.5 6.7 4.9 18.1 15.3 40.2 9.7 20.5 10.6 24.1 4.4 18.7M461.7 618c.6-17.1-.8-27-6.3-44.3-4.2-13-14.8-35.2-23-48.2-29.9-47.6-76.4-80-129.4-90.1-14.3-2.8-39.4-2.5-51.5.5-24.8 6.3-39 18.2-44 37.2-4.3 15.9.3 41.8 11.1 63.2 3.9 7.6 15.6 24.3 21.4 30.7l5.1 5.5-5.2-6.5c-7.9-9.9-11.4-15.8-16-27.2-7.6-19.2-10-39-6.8-56.3l1.3-7 .7 10c1.1 17.8 4.9 31.3 13.2 48 24.6 49.5 83.7 84 136 79.4 34.3-2.9 59.6-20.4 66.2-45.5.8-3.2 1.7-5.9 1.9-6.2.9-.9 10.1 14.4 13.7 22.8 6.4 14.9 8.2 24.1 8.2 43 .1 15.9.2 16.3 1.4 11 .8-3 1.6-12 2-20M299.3 414.9c1.2-.7 2.5-1.7 2.9-2.3 1.2-1.8.9-16.8-.8-37.6-1.5-18.3-1.7-19.7-4-22-2-2-3.4-2.5-7.5-2.4-10.1.1-10.9 3.7-9 38.6 1.3 21.4 1.9 24 6.4 25.8 3.2 1.3 9.5 1.2 12-.1m253.6-115.3c0-22.9-18.5-41.4-41.4-41.4s-41.4 18.5-41.4 41.4c0 22.8 18.5 41.4 41.4 41.4s41.4-18.6 41.4-41.4m-31.4 39.9" />
	<path d="M487 282.3c.1-2.6 7.3-10.2 11.6-12.2 4.2-2 5.6-2.2 11.8-1.5 4.5.5 6 1 4.1 1.2-1.6.2-3.8 1.1-4.7 1.9-1.7 1.5-11.1 5.8-15.3 7-1.1.3-2.7 1.1-3.5 1.8-2.5 2-4 2.7-4 1.8m79.2 444c5-10.1 5.1-10.6 4.5-18.7-.3-4.5-1.3-10.2-2.2-12.8-2.7-7.8-1.3-7.4 3 .8 3 6 4 9.1 4.3 14.1.4 5.6.1 6.8-2.3 10.3-2.3 3.4-8.5 8.7-7.3 6.3m56.3-17.9c-21.8-4.7-36.6-19.4-42.5-42.4-1.9-7.4-2.1-10.3-1.7-22 .4-9.7 1.1-15.6 2.7-21 2.7-9.4 9.2-23.3 13-28.2 3.3-4.1 3.7-6 1.5-7.8-2.4-2-5.6-11.9-6.1-18.9l-.4-6.6 1.4 4.7c6.8 23 25.9 39.5 54.2 46.5 10.3 2.5 35.7 2.3 48.6-.5 31.4-6.8 57.9-21.8 80.9-46 20.1-21.2 31.2-44.7 34-72.7 1-9.7.9-12.3-.5-18.6-3.8-16.8-17.1-28.8-39.1-35.1-6.9-1.9-10.2-2.3-23.5-2.2-13.3 0-17.2.4-27.4 2.8-31.9 7.4-59.7 21.5-85.1 43.1-14.9 12.6-32.1 32.3-43.8 50.2-10.6 16.1-22.9 45.7-26.9 64.8-1.1 5.5-1.3 5.7-1.6 2.5-.5-4.4 1.1-12.6 4.9-25.8 12.4-42.9 45.7-86.4 87.4-113.9C683.3 441 717.1 430 749 430c47.3 0 75.9 21.9 76 58.2 0 9.5-2.6 27.9-5.5 39.3-8.1 30.9-29.5 72.3-52.1 100.5-19.6 24.4-51.5 51.3-78.4 66.2-22.5 12.5-48.7 18.1-66.5 14.2m101.7-293.1c-.7-.3-1.9-1.8-2.7-3.4-1.3-2.3-1.4-4.4-.6-11.6.5-4.9 1.5-16.4 2.2-25.8.7-10.6 1.7-17.8 2.5-19.2.8-1.2 3.1-2.7 5.3-3.4 4.6-1.4 8.8.2 10.8 4.1 1.4 2.8 1.6 18.5.4 40.8-.7 13-1 14.4-3.1 16.7-2 2.1-3.2 2.5-7.9 2.4-3.1 0-6.2-.3-6.9-.6" />
</svg>